<svg width="28" height="12" viewBox="0 0 28 12" fill="none" xmlns="http://www.w3.org/2000/svg">
<path d="M0.341688 12V0.48H2.46969V5.168H5.17369L9.10969 0.48H11.4137V1.088L7.09369 6.24L11.4297 11.392V12H9.10969L5.17369 7.312H2.46969V12H0.341688ZM12.7014 12V2.704C12.7014 2.29867 12.8028 1.93067 13.0054 1.6C13.2081 1.25867 13.4748 0.986666 13.8054 0.783999C14.1468 0.581333 14.5201 0.48 14.9254 0.48H21.9814C22.3868 0.48 22.7601 0.581333 23.1014 0.783999C23.4428 0.986666 23.7148 1.25867 23.9174 1.6C24.1201 1.93067 24.2214 2.29867 24.2214 2.704V12H22.0934V8.128H14.8134V12H12.7014ZM14.8134 6.016H22.0934V2.8C22.0934 2.74667 22.0721 2.704 22.0294 2.672C21.9868 2.62933 21.9388 2.608 21.8854 2.608H15.0054C14.9521 2.608 14.9041 2.62933 14.8614 2.672C14.8294 2.704 14.8134 2.74667 14.8134 2.8V6.016ZM25.8204 12V0.48H27.9164V12H25.8204Z" fill="white"/>
</svg>
